<?xml version="1.0" encoding="UTF-8"?>
<svg id="Layer_2" data-name="Layer 2" xmlns="http://www.w3.org/2000/svg" xmlns:xlink="http://www.w3.org/1999/xlink" viewBox="0 0 680.46 680.37">
  <defs>
    <style>
      .cls-1 {
        fill: url(#_Безымянный_градиент_25);
      }

      .cls-1, .cls-2, .cls-3, .cls-4 {
        stroke-width: 0px;
      }

      .cls-2 {
        fill: url(#_Безымянный_градиент_24);
      }

      .cls-3 {
        fill: url(#_Безымянный_градиент_22);
      }

      .cls-4 {
        fill: url(#_Безымянный_градиент_14);
      }
    </style>
    <linearGradient id="_Безымянный_градиент_24" data-name="Безымянный градиент 24" x1="200.79" y1="340.23" x2="200.79" y2="0" gradientUnits="userSpaceOnUse">
      <stop offset="0" stop-color="#9211f1"/>
      <stop offset="1" stop-color="#3a7dfb"/>
    </linearGradient>
    <linearGradient id="_Безымянный_градиент_14" data-name="Безымянный градиент 14" x1="340.23" y1="200.75" x2="680.46" y2="200.75" gradientUnits="userSpaceOnUse">
      <stop offset="0" stop-color="#5800ff"/>
      <stop offset="1" stop-color="#ff9511"/>
    </linearGradient>
    <linearGradient id="_Безымянный_градиент_25" data-name="Безымянный градиент 25" x1="479.67" y1="680.37" x2="479.67" y2="340.23" gradientUnits="userSpaceOnUse">
      <stop offset="0" stop-color="#3a7dfb"/>
      <stop offset="1" stop-color="#9211f1"/>
    </linearGradient>
    <linearGradient id="_Безымянный_градиент_22" data-name="Безымянный градиент 22" x1="0" y1="479.62" x2="340.23" y2="479.62" gradientUnits="userSpaceOnUse">
      <stop offset="0" stop-color="#ff9511"/>
      <stop offset="1" stop-color="#5800ff"/>
    </linearGradient>
  </defs>
  <g id="_Слой_1" data-name="Слой 1">
    <g>
      <path class="cls-2" d="m401.58,0c0,78.29-22.46,151.29-61.36,213.06-32.21,51.36-75.81,94.88-127.16,127.17C151.29,301.33,78.2,278.87,0,278.87c143.81,0,262.56-109.45,277.33-249.41C279.1,12.68,293.35,0,310.23,0h91.35Z"/>
      <path class="cls-4" d="m680.46,310.23c0-16.88-12.68-31.14-29.47-32.91C511.03,262.56,401.58,143.8,401.58,0c0,78.29-22.46,151.29-61.36,213.06,32.29,51.36,75.81,94.88,127.17,127.17,61.77,38.81,134.85,61.27,213.06,61.27v-91.27Z"/>
      <path class="cls-1" d="m680.46,401.5c-143.81,0-262.57,109.44-277.33,249.41-1.77,16.79-16.03,29.47-32.91,29.47h-91.35c0-78.2,22.55-151.29,61.36-213.05,32.29-51.36,75.81-94.88,127.17-127.09,61.77,38.81,134.85,61.27,213.06,61.27"/>
      <path class="cls-3" d="m213.06,340.23c51.36,32.21,94.88,75.73,127.16,127.09-38.8,61.76-61.36,134.85-61.36,213.05,0-143.81-109.44-262.56-249.41-277.33C12.68,401.28,0,387.02,0,370.14v-91.27c78.2,0,151.29,22.46,213.06,61.36"/>
    </g>
  </g>
</svg>